<svg id="svg" version="1.1" xmlns="http://www.w3.org/2000/svg" xmlns:xlink="http://www.w3.org/1999/xlink" width="400" height="400" viewBox="0, 0, 400,400"><g id="svgg"><path id="path0" d="M180.400 93.981 C 170.376 94.634,167.499 95.960,166.347 100.457 L 165.849 102.400 162.367 102.400 C 153.491 102.400,148.048 103.539,147.142 105.587 C 146.881 106.176,146.068 107.052,145.336 107.532 C 144.604 108.012,143.598 109.031,143.102 109.797 C 142.482 110.755,141.896 111.192,141.226 111.195 C 140.691 111.198,139.521 111.536,138.626 111.946 C 137.732 112.356,136.150 112.999,135.111 113.375 C 132.841 114.196,131.349 115.853,130.754 118.216 C 130.244 120.241,129.435 120.880,126.488 121.582 C 123.729 122.240,122.240 123.729,121.582 126.488 C 120.880 129.435,120.241 130.244,118.216 130.754 C 115.853 131.349,114.196 132.841,113.375 135.111 C 112.999 136.150,112.356 137.732,111.946 138.626 C 111.536 139.521,111.198 140.691,111.195 141.226 C 111.192 141.896,110.755 142.482,109.797 143.102 C 109.031 143.598,108.012 144.604,107.532 145.336 C 107.052 146.068,106.176 146.881,105.587 147.142 C 103.539 148.048,102.400 153.491,102.400 162.367 L 102.400 165.849 100.457 166.347 C 94.651 167.835,94.009 170.637,93.718 195.800 C 93.387 224.316,94.025 231.872,97.031 235.055 C 98.004 236.085,98.800 237.077,98.800 237.261 C 98.800 237.445,99.565 238.149,100.500 238.825 L 102.200 240.056 102.656 245.728 C 103.302 253.745,105.586 258.209,109.747 259.582 C 111.176 260.054,111.987 261.881,112.009 264.677 C 112.035 268.012,113.853 269.722,117.989 270.301 L 120.178 270.608 120.644 274.004 C 121.223 278.217,121.413 278.683,122.854 279.428 C 124.082 280.063,129.200 284.991,129.200 285.538 C 129.200 286.646,131.310 287.708,134.272 288.091 C 138.477 288.635,138.323 288.557,138.604 290.279 C 139.344 294.829,141.134 296.719,144.800 296.822 C 147.400 296.894,148.835 297.685,149.411 299.362 C 150.871 303.607,155.044 305.270,166.093 306.008 C 175.494 306.636,175.462 306.629,175.969 308.084 C 177.642 312.881,181.274 313.738,200.000 313.750 C 219.227 313.762,227.457 312.247,230.104 308.209 C 231.064 306.744,230.700 306.841,238.200 306.063 C 244.788 305.380,250.003 302.484,250.673 299.136 C 250.976 297.621,250.841 297.671,255.852 297.225 C 262.508 296.632,267.038 294.116,268.442 290.233 C 268.714 289.481,269.311 288.673,269.768 288.436 C 270.226 288.199,270.870 287.828,271.200 287.612 C 271.530 287.395,272.528 287.037,273.417 286.816 C 275.653 286.260,277.420 284.414,278.044 281.981 C 278.612 279.764,279.455 279.008,281.842 278.576 C 285.112 277.983,286.835 276.330,287.391 273.253 C 287.860 270.658,288.899 268.933,290.300 268.422 C 294.026 267.064,296.621 262.477,297.291 256.064 C 297.533 253.757,297.918 251.876,298.162 251.811 C 302.797 250.578,303.914 249.476,305.142 244.925 C 305.614 243.176,306.000 241.226,306.000 240.591 C 306.000 235.188,306.937 230.989,308.370 229.966 C 313.211 226.512,315.332 211.849,314.032 190.810 C 313.372 180.127,312.289 177.349,308.267 176.022 L 306.921 175.578 306.662 171.289 C 305.711 155.568,303.904 150.281,299.159 149.332 C 297.651 149.030,297.658 149.045,297.172 145.167 C 296.499 139.795,295.766 139.001,291.000 138.468 L 288.600 138.200 288.389 134.966 C 288.162 131.483,287.431 129.820,285.865 129.225 C 284.560 128.729,280.260 124.393,279.677 122.986 C 278.947 121.223,277.846 120.727,274.153 120.496 L 270.852 120.290 270.626 118.745 C 270.502 117.895,270.299 116.525,270.176 115.700 C 269.785 113.082,268.720 112.252,265.200 111.825 C 260.796 111.290,260.900 111.348,260.222 109.015 C 259.484 106.479,257.563 104.579,255.309 104.157 C 254.479 104.002,253.249 103.645,252.576 103.364 C 251.902 103.082,249.331 102.725,246.862 102.568 L 242.373 102.284 241.533 100.333 C 239.991 96.747,236.847 95.251,229.000 94.366 C 224.294 93.836,187.147 93.541,180.400 93.981 " stroke="none" fill="#04fc0c" fill-rule="evenodd"></path><path id="path1" d="" stroke="none" fill="#08fc0c" fill-rule="evenodd"></path><path id="path2" d="" stroke="none" fill="#08fc0c" fill-rule="evenodd"></path><path id="path3" d="" stroke="none" fill="#08fc0c" fill-rule="evenodd"></path><path id="path4" d="" stroke="none" fill="#08fc0c" fill-rule="evenodd"></path></g></svg>